<mxfile host="app.diagrams.net" agent="Mozilla/5.0 (Windows NT 10.0; Win64; x64) AppleWebKit/537.36 (KHTML, like Gecko) Chrome/128.0.0.0 Safari/537.36" version="24.7.14">
  <diagram name="Page-1" id="Tv_U9wCD4ViJDjxL_UXc">
    <mxGraphModel dx="2074" dy="720" grid="0" gridSize="10" guides="1" tooltips="1" connect="1" arrows="1" fold="1" page="0" pageScale="1" pageWidth="850" pageHeight="1100" math="0" shadow="0">
      <root>
        <mxCell id="0" />
        <mxCell id="1" parent="0" />
        <mxCell id="-hZPdr1VJH4J_GhkySJX-1" value="" style="rounded=0;whiteSpace=wrap;html=1;" parent="1" vertex="1">
          <mxGeometry x="76.5" y="131" width="359" height="539" as="geometry" />
        </mxCell>
        <mxCell id="-hZPdr1VJH4J_GhkySJX-3" value="user" style="shape=umlActor;verticalLabelPosition=bottom;verticalAlign=top;html=1;outlineConnect=0;" parent="1" vertex="1">
          <mxGeometry x="-131" y="275" width="117" height="238" as="geometry" />
        </mxCell>
        <mxCell id="-hZPdr1VJH4J_GhkySJX-6" value="login" style="ellipse;whiteSpace=wrap;html=1;" parent="1" vertex="1">
          <mxGeometry x="169" y="187" width="160" height="88" as="geometry" />
        </mxCell>
        <mxCell id="-hZPdr1VJH4J_GhkySJX-8" value="data mapel" style="ellipse;whiteSpace=wrap;html=1;" parent="1" vertex="1">
          <mxGeometry x="178" y="555" width="166" height="92" as="geometry" />
        </mxCell>
        <mxCell id="-hZPdr1VJH4J_GhkySJX-9" value="home" style="ellipse;whiteSpace=wrap;html=1;" parent="1" vertex="1">
          <mxGeometry x="168" y="296" width="171" height="91" as="geometry" />
        </mxCell>
        <mxCell id="-hZPdr1VJH4J_GhkySJX-10" value="edit mapel" style="ellipse;whiteSpace=wrap;html=1;" parent="1" vertex="1">
          <mxGeometry x="173" y="429" width="171" height="93" as="geometry" />
        </mxCell>
        <mxCell id="-hZPdr1VJH4J_GhkySJX-15" value="admin" style="shape=umlActor;verticalLabelPosition=bottom;verticalAlign=top;html=1;outlineConnect=0;" parent="1" vertex="1">
          <mxGeometry x="519" y="304" width="117" height="238" as="geometry" />
        </mxCell>
        <mxCell id="-hZPdr1VJH4J_GhkySJX-16" value="use case mapel" style="text;html=1;align=center;verticalAlign=middle;resizable=0;points=[];autosize=1;strokeColor=none;fillColor=none;fontSize=16;" parent="1" vertex="1">
          <mxGeometry x="186" y="142" width="130" height="31" as="geometry" />
        </mxCell>
        <mxCell id="-hZPdr1VJH4J_GhkySJX-18" value="" style="endArrow=none;html=1;rounded=0;fontSize=12;startSize=8;endSize=8;curved=1;exitX=1;exitY=0.3333333333333333;exitDx=0;exitDy=0;exitPerimeter=0;entryX=0;entryY=0.5;entryDx=0;entryDy=0;" parent="1" source="-hZPdr1VJH4J_GhkySJX-3" target="-hZPdr1VJH4J_GhkySJX-9" edge="1">
          <mxGeometry width="50" height="50" relative="1" as="geometry">
            <mxPoint x="176" y="426" as="sourcePoint" />
            <mxPoint x="226" y="376" as="targetPoint" />
          </mxGeometry>
        </mxCell>
        <mxCell id="-hZPdr1VJH4J_GhkySJX-19" value="" style="endArrow=none;html=1;rounded=0;fontSize=12;startSize=8;endSize=8;curved=1;exitX=1;exitY=0.3333333333333333;exitDx=0;exitDy=0;exitPerimeter=0;entryX=0;entryY=0.5;entryDx=0;entryDy=0;" parent="1" source="-hZPdr1VJH4J_GhkySJX-3" target="-hZPdr1VJH4J_GhkySJX-8" edge="1">
          <mxGeometry width="50" height="50" relative="1" as="geometry">
            <mxPoint x="-4" y="364" as="sourcePoint" />
            <mxPoint x="178" y="352" as="targetPoint" />
          </mxGeometry>
        </mxCell>
        <mxCell id="-hZPdr1VJH4J_GhkySJX-20" style="edgeStyle=none;curved=1;rounded=0;orthogonalLoop=1;jettySize=auto;html=1;exitX=1;exitY=0.3333333333333333;exitDx=0;exitDy=0;exitPerimeter=0;fontSize=12;startSize=8;endSize=8;" parent="1" source="-hZPdr1VJH4J_GhkySJX-3" target="-hZPdr1VJH4J_GhkySJX-3" edge="1">
          <mxGeometry relative="1" as="geometry" />
        </mxCell>
        <mxCell id="-hZPdr1VJH4J_GhkySJX-21" value="" style="endArrow=none;html=1;rounded=0;fontSize=12;startSize=8;endSize=8;curved=1;exitX=1;exitY=0.5;exitDx=0;exitDy=0;" parent="1" source="-hZPdr1VJH4J_GhkySJX-6" target="-hZPdr1VJH4J_GhkySJX-15" edge="1">
          <mxGeometry width="50" height="50" relative="1" as="geometry">
            <mxPoint x="344" y="251" as="sourcePoint" />
            <mxPoint x="536" y="498" as="targetPoint" />
          </mxGeometry>
        </mxCell>
        <mxCell id="-hZPdr1VJH4J_GhkySJX-22" value="" style="endArrow=none;html=1;rounded=0;fontSize=12;startSize=8;endSize=8;curved=1;exitX=1;exitY=0.5;exitDx=0;exitDy=0;" parent="1" source="-hZPdr1VJH4J_GhkySJX-9" target="-hZPdr1VJH4J_GhkySJX-15" edge="1">
          <mxGeometry width="50" height="50" relative="1" as="geometry">
            <mxPoint x="357" y="318" as="sourcePoint" />
            <mxPoint x="547" y="465" as="targetPoint" />
          </mxGeometry>
        </mxCell>
        <mxCell id="-hZPdr1VJH4J_GhkySJX-23" value="" style="endArrow=none;html=1;rounded=0;fontSize=12;startSize=8;endSize=8;curved=1;exitX=1;exitY=0.5;exitDx=0;exitDy=0;" parent="1" source="-hZPdr1VJH4J_GhkySJX-10" target="-hZPdr1VJH4J_GhkySJX-15" edge="1">
          <mxGeometry width="50" height="50" relative="1" as="geometry">
            <mxPoint x="341" y="369" as="sourcePoint" />
            <mxPoint x="531" y="516" as="targetPoint" />
          </mxGeometry>
        </mxCell>
        <mxCell id="-hZPdr1VJH4J_GhkySJX-24" value="" style="endArrow=none;html=1;rounded=0;fontSize=12;startSize=8;endSize=8;curved=1;exitX=0.994;exitY=0.576;exitDx=0;exitDy=0;exitPerimeter=0;" parent="1" source="-hZPdr1VJH4J_GhkySJX-8" target="-hZPdr1VJH4J_GhkySJX-15" edge="1">
          <mxGeometry width="50" height="50" relative="1" as="geometry">
            <mxPoint x="344" y="532" as="sourcePoint" />
            <mxPoint x="519" y="492" as="targetPoint" />
          </mxGeometry>
        </mxCell>
      </root>
    </mxGraphModel>
  </diagram>
</mxfile>
